<svg width="164" height="164" viewBox="0 0 164 164" fill="none" xmlns="http://www.w3.org/2000/svg">
<path d="M136.667 0H27.3333C12.2376 0 0 12.2376 0 27.3333V136.667C0 151.762 12.2376 164 27.3333 164H136.667C151.762 164 164 151.762 164 136.667V27.3333C164 12.2376 151.762 0 136.667 0Z" fill="#141414"/>
<path d="M119.871 95.4737L109.605 105.564L119.871 123.165H86.3563L78.3408 109.289H62.3159V123.165H35.5662V50.0562H119.871V95.4737ZM89.9246 77.686H62.3159V84.5935H89.9246V77.686Z" fill="#85B1FF"/>
<path d="M111.624 26.4038L111.364 27.2632L112.43 27.9326L109.832 29.3029L109.117 28.8237L107.79 29.5227L108.145 30.194L106.036 31.3049L103.255 26.0315L108.8 23.1087L110.103 23.5186L111.624 26.4038ZM108.654 25.881L106.477 27.0276L106.679 27.4118L108.856 26.2652L108.654 25.881Z" fill="white"/>
<path d="M118.826 21.8136L119.638 26.7365L117.285 27.1246L117.163 26.3761L114.735 26.7761L114.858 27.5246L112.505 27.9128L111.693 22.9899L112.493 21.875L117.711 21.0156L118.826 21.8156V21.8136ZM116.703 23.5958L114.275 23.9958L114.347 24.4236L116.774 24.0236L116.703 23.5958Z" fill="white"/>
<path d="M122.642 24.0018L125.074 24.382L125.024 24.7008L122.592 24.3206L122.525 24.7503L127.311 25.4969L126.943 27.8533L119.8 26.7385L120.719 20.8492L127.862 21.9641L127.494 24.3206L122.707 23.574L122.64 24.0037L122.642 24.0018Z" fill="white"/>
<path d="M130.636 26.2137L132.826 27.3365L131.739 29.4593L129.549 28.3365L129.205 29.0118L127.082 27.9246L129.799 22.6195L136.233 25.9147L135.145 28.0375L130.832 25.8295L130.634 26.2157L130.636 26.2137Z" fill="white"/>
<path d="M144.603 36.7605L140.526 39.6378L139.151 37.6892L139.771 37.2516L138.353 35.2416L137.733 35.6793L136.359 33.7307L140.436 30.8534L141.789 31.0871L144.837 35.408L144.603 36.7605ZM142.074 35.6278L140.656 33.6179L140.302 33.8674L141.72 35.8773L142.074 35.6278Z" fill="white"/>
<path d="M143.553 41.3685L144.932 45.8083L142.654 46.5152L140.567 39.7982L146.26 38.0299L146.967 40.3071L143.551 41.3685H143.553Z" fill="white"/>
<path d="M147.522 53.8996L142.534 53.8144L142.573 51.4302L143.332 51.4421L143.373 48.9806L142.615 48.9687L142.656 46.5845L147.645 46.6697L148.599 47.6558L148.51 52.9431L147.524 53.8976L147.522 53.8996ZM146.15 51.4916L146.191 49.0301L145.758 49.0222L145.716 51.4836L146.15 51.4916Z" fill="white"/>
<path d="M144.827 62.4265L140.12 60.773L140.91 58.5234L141.625 58.7749L142.44 56.4541L141.726 56.2026L142.516 53.953L147.223 55.6065L147.817 56.8442L146.064 61.8324L144.827 62.4265ZM144.284 59.7076L145.1 57.3867L144.69 57.2422L143.874 59.563L144.284 59.7076Z" fill="white"/>
<path d="M139.698 65.7989C139.809 65.8959 139.894 66.0088 139.955 66.1375C140.017 66.2662 140.05 66.3989 140.06 66.5355C140.068 66.6722 140.052 66.8068 140.011 66.9395C139.969 67.0722 139.9 67.1949 139.803 67.3058C139.706 67.4167 139.593 67.5019 139.466 67.5613C139.339 67.6207 139.209 67.6544 139.072 67.6623C138.935 67.6702 138.801 67.6544 138.668 67.6128C138.535 67.5712 138.413 67.5019 138.302 67.4049C138.191 67.3078 138.106 67.1949 138.046 67.0682C137.987 66.9415 137.953 66.8088 137.945 66.6741C137.937 66.5375 137.953 66.4028 137.995 66.2702C138.036 66.1375 138.106 66.0147 138.203 65.9038C138.3 65.7929 138.411 65.7078 138.535 65.6464C138.66 65.585 138.791 65.5513 138.928 65.5414C139.064 65.5315 139.199 65.5494 139.332 65.5909C139.464 65.6325 139.587 65.7018 139.698 65.7989Z" fill="white"/>
<path d="M127.686 73.3198L127.957 72.4644L126.899 71.7792L129.515 70.4445L130.224 70.9336L131.559 70.2524L131.214 69.5771L133.337 68.494L136.046 73.803L130.464 76.6506L129.165 76.2229L127.682 73.3178L127.686 73.3198ZM130.648 73.8822L132.84 72.7634L132.642 72.3772L130.45 73.4961L130.648 73.8822Z" fill="white"/>
<path d="M120.422 77.813L119.676 72.8782L122.034 72.5218L122.147 73.2703L124.581 72.902L124.468 72.1535L126.824 71.797L127.571 76.7318L126.757 77.8368L121.529 78.6269L120.424 77.813H120.422ZM122.569 76.0585L125.002 75.6902L124.937 75.2605L122.503 75.6288L122.569 76.0585Z" fill="white"/>
<path d="M116.636 75.5753L114.21 75.1634L114.263 74.8446L116.689 75.2565L116.763 74.8288L111.986 74.0189L112.386 71.6683L119.513 72.8782L118.515 78.7556L111.388 77.5457L111.786 75.1951L116.563 76.0051L116.636 75.5773V75.5753Z" fill="white"/>
<path d="M108.681 73.2624L106.505 72.1119L107.62 70.0049L109.796 71.1554L110.151 70.4861L112.258 71.601L109.471 76.8704L103.081 73.4921L104.196 71.3851L108.479 73.6485L108.683 73.2644L108.681 73.2624Z" fill="white"/>
<path d="M94.8472 62.5294L98.9622 59.7076L100.311 61.674L99.685 62.1037L101.077 64.1334L101.703 63.7037L103.051 65.6701L98.9364 68.492L97.5859 68.2405L94.5938 63.88L94.8452 62.5294H94.8472ZM97.3621 63.6958L98.7543 65.7256L99.1127 65.48L97.7206 63.4503L97.3621 63.6958Z" fill="white"/>
<path d="M95.9581 57.9353L94.6373 53.4778L96.9225 52.8005L98.9206 59.5452L93.2056 61.2383L92.5283 58.9531L95.9581 57.9373V57.9353Z" fill="white"/>
<path d="M92.1541 45.3409L97.1423 45.4934L97.0691 47.8756L96.3106 47.8519L96.2354 50.3113L96.9938 50.3351L96.9205 52.7173L91.9323 52.5649L90.9917 51.5648L91.1521 46.2796L92.1521 45.3389L92.1541 45.3409ZM93.4947 47.7667L93.4195 50.2262L93.8531 50.24L93.9284 47.7806L93.4947 47.7667Z" fill="white"/>
<path d="M94.9602 36.8675L99.6454 38.5824L98.8256 40.822L98.1147 40.5606L97.2691 42.8716L97.98 43.133L97.1602 45.3726L92.475 43.6577L91.8967 42.4122L93.7146 37.4477L94.9602 36.8694V36.8675ZM95.4671 39.5923L94.6216 41.9032L95.0295 42.0517L95.875 39.7408L95.4671 39.5923Z" fill="white"/>
<path d="M100.132 33.5584C100.023 33.4594 99.9383 33.3465 99.8789 33.2159C99.8195 33.0871 99.7858 32.9545 99.7799 32.8178C99.772 32.6812 99.7898 32.5465 99.8334 32.4139C99.8769 32.2812 99.9482 32.1604 100.045 32.0495C100.144 31.9406 100.257 31.8554 100.384 31.8C100.511 31.7426 100.643 31.7109 100.78 31.7029C100.917 31.695 101.051 31.7128 101.184 31.7564C101.317 31.8 101.437 31.8713 101.548 31.9683C101.657 32.0673 101.742 32.1802 101.798 32.3069C101.855 32.4356 101.887 32.5663 101.895 32.703C101.903 32.8396 101.885 32.9743 101.841 33.1069C101.798 33.2396 101.726 33.3604 101.627 33.4713C101.528 33.5802 101.418 33.6654 101.291 33.7248C101.166 33.7842 101.035 33.8178 100.899 33.8238C100.762 33.8317 100.627 33.8139 100.495 33.7703C100.362 33.7268 100.241 33.6555 100.13 33.5584H100.132Z" fill="white"/>
</svg>
