<svg width="96" height="96" viewBox="0 0 96 96" fill="none" xmlns="http://www.w3.org/2000/svg">
<path d="M0 64C0 58.109 4.77563 53.3333 10.6667 53.3333H32C37.891 53.3333 42.6667 58.109 42.6667 64V85.3333C42.6667 91.2244 37.891 96 32 96H10.6667C4.77563 96 0 91.2244 0 85.3333V64Z" fill="#141414"/>
<path d="M53.3333 64C53.3333 58.109 58.109 53.3333 64 53.3333H85.3333C91.2244 53.3333 96 58.109 96 64V85.3333C96 91.2244 91.2244 96 85.3333 96H64C58.109 96 53.3333 91.2244 53.3333 85.3333V64Z" fill="#141414"/>
<path d="M53.3333 10.6667C53.3333 4.77563 58.109 0 64 0H85.3333C91.2244 0 96 4.77563 96 10.6667V32C96 37.891 91.2244 42.6667 85.3333 42.6667H64C58.109 42.6667 53.3333 37.891 53.3333 32V10.6667Z" fill="#141414"/>
<path d="M0 10.6667C0 4.77563 4.77563 0 10.6667 0H32C37.891 0 42.6667 4.77563 42.6667 10.6667V32C42.6667 37.891 37.891 42.6667 32 42.6667H10.6667C4.77563 42.6667 0 37.891 0 32V10.6667Z" fill="#141414"/>
</svg>
